<svg width="96" height="96" viewBox="0 0 96 96" fill="none" xmlns="http://www.w3.org/2000/svg">
<g id="chart icon">
<g id="Union">
<path fill-rule="evenodd" clip-rule="evenodd" d="M29.625 33C37.7022 33 44.25 26.4522 44.25 18.375C44.25 10.2978 37.7022 3.75 29.625 3.75C21.5478 3.75 15 10.2978 15 18.375C15 26.4522 21.5478 33 29.625 33ZM29.625 36.75C39.7732 36.75 48 28.5232 48 18.375C48 8.22677 39.7732 0 29.625 0C19.4768 0 11.25 8.22677 11.25 18.375C11.25 28.5232 19.4768 36.75 29.625 36.75ZM90.375 24.75C90.375 24.2372 90.165 23.7469 89.7939 23.393C89.4228 23.0392 88.923 22.8527 88.4108 22.8771L80.5358 23.2521C79.5015 23.3014 78.7029 24.1798 78.7521 25.2142C78.8014 26.2485 79.6798 27.0471 80.7142 26.9979L84.248 26.8296L67.7059 46.1287L48.7074 38.3886C48.1162 38.1477 47.4431 38.2242 46.921 38.5916L27.7641 52.0723L8.5978 38.23C7.75831 37.6237 6.58628 37.8127 5.97998 38.6522C5.37369 39.4917 5.56273 40.6637 6.40221 41.27L26.6522 55.895C27.3007 56.3634 28.1749 56.3687 28.8291 55.9084L48.2413 42.2479L67.5426 50.1114C68.29 50.4159 69.1484 50.208 69.6736 49.5952L86.625 29.8186V32.625C86.625 33.6605 87.4645 34.5 88.5 34.5C89.5355 34.5 90.375 33.6605 90.375 32.625V24.75ZM91.5 44.25H86.25C85.8358 44.25 85.5 44.5858 85.5 45V91.5C85.5 91.9142 85.8358 92.25 86.25 92.25H91.5C91.9142 92.25 92.25 91.9142 92.25 91.5V45C92.25 44.5858 91.9142 44.25 91.5 44.25ZM86.25 40.5C83.7647 40.5 81.75 42.5147 81.75 45V91.5C81.75 93.9853 83.7647 96 86.25 96H91.5C93.9853 96 96 93.9853 96 91.5V45C96 42.5147 93.9853 40.5 91.5 40.5H86.25ZM4.50001 54.75H9.75001C10.1642 54.75 10.5 55.0858 10.5 55.5V91.5C10.5 91.9142 10.1642 92.25 9.75001 92.25H4.50001C4.08579 92.25 3.75001 91.9142 3.75001 91.5V55.5C3.75001 55.0858 4.08579 54.75 4.50001 54.75ZM6.67572e-06 55.5C6.67572e-06 53.0147 2.01473 51 4.50001 51H9.75001C12.2353 51 14.25 53.0147 14.25 55.5V91.5C14.25 93.9853 12.2353 96 9.75001 96H4.50001C2.01473 96 6.67572e-06 93.9853 6.67572e-06 91.5V55.5ZM24.75 66.75C24.75 66.3358 25.0858 66 25.5 66H30.75C31.1642 66 31.5 66.3358 31.5 66.75V91.5C31.5 91.9142 31.1642 92.25 30.75 92.25H25.5C25.0858 92.25 24.75 91.9142 24.75 91.5V66.75ZM21 66.75C21 64.2647 23.0147 62.25 25.5 62.25H30.75C33.2353 62.25 35.25 64.2647 35.25 66.75V91.5C35.25 93.9853 33.2353 96 30.75 96H25.5C23.0147 96 21 93.9853 21 91.5V66.75ZM50.25 54.75H45C44.5858 54.75 44.25 55.0858 44.25 55.5V91.5C44.25 91.9142 44.5858 92.25 45 92.25H50.25C50.6642 92.25 51 91.9142 51 91.5V55.5C51 55.0858 50.6642 54.75 50.25 54.75ZM45 51C42.5147 51 40.5 53.0147 40.5 55.5V91.5C40.5 93.9853 42.5147 96 45 96H50.25C52.7353 96 54.75 93.9853 54.75 91.5V55.5C54.75 53.0147 52.7353 51 50.25 51H45ZM66 60.75H71.25C71.6642 60.75 72 61.0858 72 61.5V91.5C72 91.9142 71.6642 92.25 71.25 92.25H66C65.5858 92.25 65.25 91.9142 65.25 91.5V61.5C65.25 61.0858 65.5858 60.75 66 60.75ZM61.5 61.5C61.5 59.0147 63.5147 57 66 57H71.25C73.7353 57 75.75 59.0147 75.75 61.5V91.5C75.75 93.9853 73.7353 96 71.25 96H66C63.5147 96 61.5 93.9853 61.5 91.5V61.5Z" fill="url(#paint0_linear_542_484)"/>
<path d="M25.981 17.4647V19.6115C25.981 22.8126 27.3608 24.6037 29.7785 24.6037C31.7658 24.6037 33.057 23.3462 33.1962 21.5677H36.5V21.898C36.3465 24.9914 33.901 27.189 30.5 27.4696V29.5C30.5 30.0523 30.0523 30.5 29.5 30.5C28.9477 30.5 28.5 30.0523 28.5 29.5V27.4224C24.6413 26.9252 22.5 24.0663 22.5 19.6115V17.452C22.5 12.9994 24.6599 10.0891 28.5 9.57998V7.5C28.5 6.94771 28.9477 6.5 29.5 6.5C30.0523 6.5 30.5 6.94772 30.5 7.5V9.53105C33.9124 9.81865 36.3582 12.0791 36.5 15.2798V15.5974H33.1962C33.057 13.7555 31.7405 12.3963 29.7785 12.3963C27.3861 12.3963 25.981 14.2509 25.981 17.4647Z" fill="url(#paint1_linear_542_484)"/>
</g>
</g>
<defs>
<linearGradient id="paint0_linear_542_484" x1="1.28009e-06" y1="48" x2="96" y2="48" gradientUnits="userSpaceOnUse">
<stop stop-color="#009DE0"/>
<stop offset="1" stop-color="#2BBAED"/>
</linearGradient>
<linearGradient id="paint1_linear_542_484" x1="1.28009e-06" y1="48" x2="96" y2="48" gradientUnits="userSpaceOnUse">
<stop stop-color="#009DE0"/>
<stop offset="1" stop-color="#2BBAED"/>
</linearGradient>
</defs>
</svg>
