<svg width="24" height="24" viewBox="0 0 24 24" fill="none" xmlns="http://www.w3.org/2000/svg">
<g id="material-symbols:privacy-tip-outline-rounded">
<path id="Vector" d="M12 16.9999C12.2833 16.9999 12.521 16.9039 12.713 16.7119C12.905 16.5199 13.0007 16.2826 13 15.9999V11.9999C13 11.7166 12.904 11.4789 12.712 11.2869C12.52 11.0949 12.2827 10.9992 12 10.9999C11.7167 10.9999 11.479 11.0959 11.287 11.2879C11.095 11.4799 10.9993 11.7172 11 11.9999V15.9999C11 16.2832 11.096 16.5209 11.288 16.7129C11.48 16.9049 11.7173 17.0006 12 16.9999ZM12 8.9999C12.2833 8.9999 12.521 8.9039 12.713 8.7119C12.905 8.5199 13.0007 8.28257 13 7.9999C13 7.71657 12.904 7.4789 12.712 7.2869C12.52 7.0949 12.2827 6.99924 12 6.9999C11.7167 6.9999 11.479 7.0959 11.287 7.2879C11.095 7.4799 10.9993 7.71724 11 7.9999C11 8.28324 11.096 8.5209 11.288 8.7129C11.48 8.9049 11.7173 9.00057 12 8.9999ZM12 21.8999C11.8833 21.8999 11.775 21.8916 11.675 21.8749C11.575 21.8582 11.475 21.8332 11.375 21.7999C9.125 21.0499 7.33333 19.6622 6 17.6369C4.66667 15.6116 4 13.4326 4 11.0999V6.3749C4 5.95824 4.121 5.58324 4.363 5.2499C4.605 4.91657 4.91733 4.6749 5.3 4.5249L11.3 2.2749C11.5333 2.19157 11.7667 2.1499 12 2.1499C12.2333 2.1499 12.4667 2.19157 12.7 2.2749L18.7 4.5249C19.0833 4.6749 19.396 4.91657 19.638 5.2499C19.88 5.58324 20.0007 5.95824 20 6.3749V11.0999C20 13.4332 19.3333 15.6126 18 17.6379C16.6667 19.6632 14.875 21.0506 12.625 21.7999C12.525 21.8332 12.425 21.8582 12.325 21.8749C12.225 21.8916 12.1167 21.8999 12 21.8999ZM12 19.8999C13.7333 19.3499 15.1667 18.2499 16.3 16.5999C17.4333 14.9499 18 13.1166 18 11.0999V6.3749L12 4.1249L6 6.3749V11.0999C6 13.1166 6.56667 14.9499 7.7 16.5999C8.83333 18.2499 10.2667 19.3499 12 19.8999Z" fill="white"/>
</g>
</svg>
