<svg width="24" height="24" viewBox="0 0 24 24" fill="none" xmlns="http://www.w3.org/2000/svg">
<g id="solar:share-outline">
<path id="Vector" fill-rule="evenodd" clip-rule="evenodd" d="M16.5001 2.25C16.0246 2.24984 15.5548 2.35402 15.124 2.55519C14.6932 2.75636 14.3117 3.04962 14.0065 3.41428C13.7014 3.77894 13.48 4.20611 13.3579 4.66567C13.2358 5.12523 13.2161 5.60598 13.3001 6.074L8.57007 9.386C8.54642 9.40236 8.52371 9.42006 8.50207 9.439C8.02221 9.06388 7.44659 8.83116 6.84085 8.76737C6.23512 8.70358 5.62365 8.8113 5.07617 9.07823C4.5287 9.34516 4.06725 9.76057 3.74445 10.2771C3.42165 10.7936 3.25049 11.3904 3.25049 11.9995C3.25049 12.6086 3.42165 13.2054 3.74445 13.7219C4.06725 14.2384 4.5287 14.6538 5.07617 14.9208C5.62365 15.1877 6.23512 15.2954 6.84085 15.2316C7.44659 15.1678 8.02221 14.9351 8.50207 14.56C8.52368 14.5793 8.54639 14.5973 8.57007 14.614L13.3001 17.926C13.1597 18.7088 13.3111 19.5158 13.7258 20.1944C14.1404 20.873 14.7895 21.376 15.5501 21.6082C16.3106 21.8404 17.13 21.7857 17.8529 21.4544C18.5759 21.1231 19.1523 20.5382 19.473 19.8105C19.7937 19.0828 19.8365 18.2628 19.5932 17.5057C19.3499 16.7485 18.8375 16.1069 18.1529 15.7022C17.4684 15.2975 16.6592 15.1578 15.8785 15.3096C15.0979 15.4615 14.4001 15.8942 13.9171 16.526L9.43807 13.391C9.63807 12.969 9.75007 12.498 9.75007 12C9.75007 11.502 9.63807 11.03 9.43807 10.609L13.9181 7.473C14.2537 7.91227 14.6957 8.25868 15.2025 8.47948C15.7093 8.70028 16.264 8.78817 16.8142 8.73484C17.3644 8.68151 17.8919 8.48872 18.3469 8.1747C18.8018 7.86068 19.1691 7.43581 19.4141 6.94026C19.6591 6.44472 19.7736 5.89488 19.7469 5.34274C19.7201 4.7906 19.553 4.25441 19.2612 3.78487C18.9695 3.31532 18.5629 2.92795 18.0797 2.65937C17.5965 2.3908 17.0529 2.2499 16.5001 2.25ZM14.7501 5.5C14.7501 5.03587 14.9344 4.59075 15.2626 4.26256C15.5908 3.93437 16.0359 3.75 16.5001 3.75C16.9642 3.75 17.4093 3.93437 17.7375 4.26256C18.0657 4.59075 18.2501 5.03587 18.2501 5.5C18.2501 5.96413 18.0657 6.40925 17.7375 6.73744C17.4093 7.06563 16.9642 7.25 16.5001 7.25C16.0359 7.25 15.5908 7.06563 15.2626 6.73744C14.9344 6.40925 14.7501 5.96413 14.7501 5.5ZM6.50007 10.25C6.03594 10.25 5.59082 10.4344 5.26264 10.7626C4.93445 11.0908 4.75007 11.5359 4.75007 12C4.75007 12.4641 4.93445 12.9092 5.26264 13.2374C5.59082 13.5656 6.03594 13.75 6.50007 13.75C6.9642 13.75 7.40932 13.5656 7.73751 13.2374C8.0657 12.9092 8.25007 12.4641 8.25007 12C8.25007 11.5359 8.0657 11.0908 7.73751 10.7626C7.40932 10.4344 6.9642 10.25 6.50007 10.25ZM16.5001 16.75C16.0359 16.75 15.5908 16.9344 15.2626 17.2626C14.9344 17.5908 14.7501 18.0359 14.7501 18.5C14.7501 18.9641 14.9344 19.4092 15.2626 19.7374C15.5908 20.0656 16.0359 20.25 16.5001 20.25C16.9642 20.25 17.4093 20.0656 17.7375 19.7374C18.0657 19.4092 18.2501 18.9641 18.2501 18.5C18.2501 18.0359 18.0657 17.5908 17.7375 17.2626C17.4093 16.9344 16.9642 16.75 16.5001 16.75Z" fill="white"/>
</g>
</svg>
